<?xml version="1.0" encoding="UTF-8" standalone="no"?>
<!-- Created with Inkscape (http://www.inkscape.org/) -->

<svg
   width="1280"
   height="640"
   viewBox="0 0 338.66668 169.33334"
   version="1.1"
   id="svg5"
   inkscape:version="1.1.1 (c3084ef, 2021-09-22)"
   sodipodi:docname="logo_wide.svg"
   inkscape:export-filename="/Users/paula/IdeaProjects/AMPT/resources/ampt_logo_wide.png"
   inkscape:export-xdpi="96"
   inkscape:export-ydpi="96"
   xmlns:inkscape="http://www.inkscape.org/namespaces/inkscape"
   xmlns:sodipodi="http://sodipodi.sourceforge.net/DTD/sodipodi-0.dtd"
   xmlns="http://www.w3.org/2000/svg"
   xmlns:svg="http://www.w3.org/2000/svg">
  <sodipodi:namedview
     id="namedview7"
     pagecolor="#ffffff"
     bordercolor="#666666"
     borderopacity="1.0"
     inkscape:pageshadow="2"
     inkscape:pageopacity="0.0"
     inkscape:pagecheckerboard="0"
     inkscape:document-units="mm"
     showgrid="false"
     showguides="true"
     inkscape:zoom="0.859375"
     inkscape:cx="623.70909"
     inkscape:cy="352"
     inkscape:window-width="1867"
     inkscape:window-height="969"
     inkscape:window-x="3734"
     inkscape:window-y="25"
     inkscape:window-maximized="0"
     inkscape:current-layer="layer3"
     width="175mm"
     units="px" />
  <defs
     id="defs2">
    <clipPath
       clipPathUnits="userSpaceOnUse"
       id="clipPath854">
      <path
         d="M 0,1757.147 H 1988.434 V 0 H 0 Z"
         id="path852" />
    </clipPath>
    <clipPath
       clipPathUnits="userSpaceOnUse"
       id="clipPath1038">
      <path
         d="M 0,1757.147 H 1988.434 V 0 H 0 Z"
         id="path1036" />
    </clipPath>
    <clipPath
       clipPathUnits="userSpaceOnUse"
       id="clipPath1222">
      <path
         d="M 0,1757.147 H 1988.434 V 0 H 0 Z"
         id="path1220" />
    </clipPath>
    <clipPath
       clipPathUnits="userSpaceOnUse"
       id="clipPath1570">
      <path
         d="M 0,1757.147 H 1988.434 V 0 H 0 Z"
         id="path1568" />
    </clipPath>
  </defs>
  <g
     inkscape:groupmode="layer"
     id="layer2"
     inkscape:label="Art"
     style="display:inline">
    <rect
       style="display:inline;fill:#c8c8c8;fill-opacity:1;stroke:none;stroke-width:0.33687"
       id="rect6824"
       width="317.5"
       height="148.16667"
       x="10.583333"
       y="10.583333"
       rx="5.2916665"
       ry="5.2916665" />
  </g>
  <g
     inkscape:groupmode="layer"
     id="layer3"
     inkscape:label="Text"
     style="display:inline">
    <g
       id="g6800"
       transform="matrix(1.1598719,0,0,1.1598719,-33.165705,-33.165709)">
      <g
         id="g1224"
         transform="matrix(0.32660585,0,0,-0.32660585,101.11285,39.999999)"
         style="display:inline">
        <path
           d="m 0,0 c -103.341,0 -187.115,-83.773 -187.115,-187.115 0,-103.341 83.774,-187.114 187.115,-187.114 103.341,0 187.114,83.773 187.114,187.114 C 187.114,-83.773 103.341,0 0,0 m 0,-10 c 47.31,0 91.787,-18.423 125.238,-51.876 33.453,-33.452 51.876,-77.93 51.876,-125.239 0,-47.309 -18.423,-91.785 -51.876,-125.238 C 91.787,-345.807 47.31,-364.229 0,-364.229 c -47.31,0 -91.786,18.422 -125.239,51.876 -33.452,33.453 -51.876,77.929 -51.876,125.238 0,47.309 18.424,91.787 51.876,125.239 C -91.786,-28.423 -47.31,-10 0,-10"
           style="fill:#000000;fill-opacity:1;fill-rule:nonzero;stroke:none"
           id="path1226" />
      </g>
      <g
         id="g1228"
         transform="matrix(0.32660585,0,0,-0.32660585,83.081921,77.320129)"
         style="display:inline;fill:#000000;fill-opacity:1;stroke:#000000;stroke-opacity:1">
        <path
           d="M 0,0 H 18.326"
           style="fill:#000000;fill-opacity:1;fill-rule:nonzero;stroke:#000000;stroke-width:3;stroke-linecap:butt;stroke-linejoin:miter;stroke-miterlimit:10;stroke-dasharray:none;stroke-opacity:1"
           id="path1230" />
      </g>
      <g
         id="g1232"
         transform="matrix(0.32660585,0,0,-0.32660585,80.68532,54.039209)"
         style="display:inline;fill:#000000;fill-opacity:1;stroke:#000000;stroke-opacity:1">
        <path
           d="M 0,0 H 25.664"
           style="fill:#000000;fill-opacity:1;fill-rule:nonzero;stroke:#000000;stroke-width:3;stroke-linecap:butt;stroke-linejoin:miter;stroke-miterlimit:10;stroke-dasharray:none;stroke-opacity:1"
           id="path1234" />
      </g>
      <g
         id="g1236"
         transform="matrix(0.32660585,0,0,-0.32660585,85.333078,65.423576)"
         style="display:inline;fill:#000000;fill-opacity:1;stroke:#000000;stroke-opacity:1">
        <path
           d="M 0,0 H 11.434"
           style="fill:#000000;fill-opacity:1;fill-rule:nonzero;stroke:#000000;stroke-width:2;stroke-linecap:butt;stroke-linejoin:miter;stroke-miterlimit:10;stroke-dasharray:none;stroke-opacity:1"
           id="path1238" />
      </g>
      <g
         id="g1240"
         transform="matrix(0.32660585,0,0,-0.32660585,85.333078,89.216357)"
         style="display:inline;fill:#000000;fill-opacity:1;stroke:#000000;stroke-opacity:1">
        <path
           d="M 0,0 H 11.434"
           style="fill:#000000;fill-opacity:1;fill-rule:nonzero;stroke:#000000;stroke-width:2;stroke-linecap:butt;stroke-linejoin:miter;stroke-miterlimit:10;stroke-dasharray:none;stroke-opacity:1"
           id="path1242" />
      </g>
      <g
         id="g1244"
         transform="matrix(0.32660585,0,0,-0.32660585,82.07339,101.11291)"
         style="display:inline;fill:#000000;fill-opacity:1;stroke:#000000;stroke-opacity:1">
        <path
           d="M 0,0 H 21.414"
           style="fill:#000000;fill-opacity:1;fill-rule:nonzero;stroke:#000000;stroke-width:3;stroke-linecap:butt;stroke-linejoin:miter;stroke-miterlimit:10;stroke-dasharray:none;stroke-opacity:1"
           id="path1246" />
      </g>
      <g
         id="g1248"
         transform="matrix(0.32660585,0,0,-0.32660585,85.333078,113.00946)"
         style="display:inline;fill:#000000;fill-opacity:1;stroke:#000000;stroke-opacity:1">
        <path
           d="M 0,0 H 11.434"
           style="fill:#000000;fill-opacity:1;fill-rule:nonzero;stroke:#000000;stroke-width:2;stroke-linecap:butt;stroke-linejoin:miter;stroke-miterlimit:10;stroke-dasharray:none;stroke-opacity:1"
           id="path1250" />
      </g>
      <g
         id="g1252"
         transform="matrix(0.32660585,0,0,-0.32660585,83.081921,124.90572)"
         style="display:inline;fill:#000000;fill-opacity:1;stroke:#000000;stroke-opacity:1">
        <path
           d="M 0,0 H 18.326"
           style="fill:#000000;fill-opacity:1;fill-rule:nonzero;stroke:#000000;stroke-width:3;stroke-linecap:butt;stroke-linejoin:miter;stroke-miterlimit:10;stroke-dasharray:none;stroke-opacity:1"
           id="path1254" />
      </g>
      <g
         id="g1256"
         transform="matrix(0.32660585,0,0,-0.32660585,85.333078,136.80227)"
         style="display:inline;fill:#000000;fill-opacity:1;stroke:#000000;stroke-opacity:1">
        <path
           d="M 0,0 H 11.434"
           style="fill:#000000;fill-opacity:1;fill-rule:nonzero;stroke:#000000;stroke-width:2;stroke-linecap:butt;stroke-linejoin:miter;stroke-miterlimit:10;stroke-dasharray:none;stroke-opacity:1"
           id="path1258" />
      </g>
      <g
         id="g1260"
         transform="matrix(0.32660585,0,0,-0.32660585,80.68532,148.69882)"
         style="display:inline;fill:#000000;fill-opacity:1;stroke:#000000;stroke-opacity:1">
        <path
           d="M 0,0 H 25.664"
           style="fill:#000000;fill-opacity:1;fill-rule:nonzero;stroke:#000000;stroke-width:3;stroke-linecap:butt;stroke-linejoin:miter;stroke-miterlimit:10;stroke-dasharray:none;stroke-opacity:1"
           id="path1262" />
      </g>
      <g
         id="g1264"
         transform="matrix(0.32660585,0,0,-0.32660585,159.20597,84.234999)"
         style="display:inline;fill:none;fill-opacity:1;stroke:#000000;stroke-opacity:1">
        <path
           d="m 0,0 c -0.346,-0.032 -74.058,-32.377 -106.994,-24.829 -18.913,10.815 -21.938,24.866 -26.12,44.312 -1.98,9.204 -4.224,19.632 -8.572,30.928 -7.214,18.739 -19.96,28.945 -29.379,34.207 -9.507,5.311 -17.529,6.776 -18.862,6.99 -0.209,0.042 -0.426,0.065 -0.645,0.065 -1.872,0 -3.391,-1.585 -3.391,-3.544 v -0.006 c 0,-1.597 1.009,-2.946 2.397,-3.391 0.563,-0.288 9.42,-5.436 9.42,-42.25 0,-3.922 -0.103,-8.126 -0.307,-12.488 -0.322,-6.879 -0.48,-12.969 -0.48,-18.617 -0.001,-19.135 1.891,-32.626 5.949,-42.459 3.148,-7.63 7.695,-13.476 14.425,-18.421 -16.333,-11.072 -22.003,-26.59 -22.003,-57.836 -10e-4,-7.054 0.298,-14.942 0.916,-24.117 0.39,-5.785 0.586,-11.28 0.586,-16.334 0,-33.499 -8.506,-39.814 -9.392,-40.378 -1.456,-0.424 -2.323,-1.761 -2.323,-3.273 0,-0.288 0.031,-0.58 0.094,-0.875 0.41,-1.883 2.352,-3.023 4.159,-2.634 0.36,0.077 8.937,1.971 19.136,8.311 9.43,5.866 22.102,16.816 28.919,35.684 4.114,11.393 6.146,21.869 7.937,31.114 3.783,19.529 14.104,36.498 28.983,49.976 7.283,4.379 10.767,3.354 19.532,3.307 9.936,-0.052 3.744,0.193 5.573,-0.22 L 3.371,-85.733 M -190.572,88.123 v 0.006"
           style="fill:none;fill-opacity:1;fill-rule:nonzero;stroke:#000000;stroke-opacity:1"
           id="path1266" />
      </g>
      <g
         id="g1268"
         transform="matrix(0.32660585,0,0,-0.32660585,159.20597,84.633356)"
         style="display:inline;fill:#000000;fill-opacity:1;stroke:#000000;stroke-opacity:1">
        <path
           d="m 0,0 c -0.346,-0.032 -74.058,-32.377 -106.994,-24.829 -18.913,10.815 -21.938,24.866 -26.12,44.311 -1.98,9.204 -4.224,19.633 -8.572,30.929 -7.214,18.738 -19.96,28.944 -29.379,34.207 -9.507,5.311 -17.529,6.775 -18.862,6.989 -0.209,0.042 -0.426,0.066 -0.645,0.066 -1.872,0 -3.391,-1.585 -3.391,-3.544 v -0.006 c 0,-1.597 1.009,-2.946 2.397,-3.392 0.563,-0.287 9.42,-5.435 9.42,-42.25 0,-3.922 -0.103,-8.126 -0.307,-12.487 -0.322,-6.879 -0.48,-12.97 -0.48,-18.617 -0.001,-19.135 1.891,-32.626 5.949,-42.459 3.148,-7.63 7.695,-13.477 14.425,-18.421 -16.333,-11.072 -22.003,-26.59 -22.003,-57.836 -10e-4,-7.055 0.298,-14.942 0.916,-24.117 0.39,-5.785 0.586,-11.28 0.586,-16.334 0,-33.499 -8.506,-39.814 -9.392,-40.378 -1.456,-0.424 -2.323,-1.761 -2.323,-3.274 0,-0.287 0.031,-0.58 0.094,-0.875 0.41,-1.882 2.352,-3.022 4.159,-2.633 0.36,0.077 8.937,1.97 19.136,8.311 9.43,5.865 22.102,16.816 28.919,35.684 4.114,11.392 6.146,21.869 7.937,31.114 3.783,19.528 14.104,36.498 28.983,49.976 19.169132,5.896867 74.602842,-7.842406 108.918,-15.869 M -190.572,88.123 v 0.006"
           style="fill:#000000;fill-opacity:1;stroke:#000000;stroke-width:7;stroke-linecap:butt;stroke-linejoin:miter;stroke-miterlimit:10;stroke-dasharray:none;stroke-opacity:1"
           id="path1270"
           sodipodi:nodetypes="ccccccssscsccccccscsccccccccc" />
      </g>
      <path
         id="path7370-7"
         style="display:inline;fill:none;stroke:none;stroke-width:0.256739"
         d="M 52.39752,134.0923 A 59.695949,59.566722 39.561721 0 0 134.21374,154.7717 59.695949,59.566722 39.561721 0 0 154.72753,73.032757 59.695949,59.566722 39.561721 0 0 72.911291,52.353356 59.695949,59.566722 39.561721 0 0 52.39752,134.0923 Z" />
      <path
         id="path7370"
         style="fill:none;fill-opacity:1;stroke:none;stroke-width:0.220502;stroke-opacity:1"
         d="M 60.877105,74.656319 A 51.306535,51.123624 78.391897 0 1 131.71103,60.171685 51.306535,51.123624 78.391897 0 1 146.24793,131.25896 51.306535,51.123624 78.391897 0 1 75.414007,145.74358 51.306535,51.123624 78.391897 0 1 60.877105,74.656319 Z" />
    </g>
    <text
       xml:space="preserve"
       style="font-style:normal;font-weight:normal;font-size:16.9333px;line-height:1.25;font-family:sans-serif;display:inline;fill:#000000;fill-opacity:1;stroke:none;stroke-width:0.264583"
       x="172.78745"
       y="58.985596"
       id="text2203"><tspan
         sodipodi:role="line"
         id="tspan2201"
         style="font-size:16.9333px;stroke-width:0.264583"
         x="172.78745"
         y="58.985596">Aquatic</tspan><tspan
         sodipodi:role="line"
         style="font-size:16.9333px;stroke-width:0.264583"
         x="172.78745"
         y="80.152222"
         id="tspan2205">Mammal</tspan><tspan
         sodipodi:role="line"
         style="font-size:16.9333px;stroke-width:0.264583"
         x="172.78745"
         y="101.31885"
         id="tspan2207">Photogrammetry</tspan><tspan
         sodipodi:role="line"
         style="font-size:16.9333px;stroke-width:0.264583"
         x="172.78745"
         y="122.48547"
         id="tspan2209">Tool</tspan></text>
  </g>
</svg>
