<?xml version="1.0" encoding="UTF-8" standalone="no"?>
<!--
  -  Copyright (c) 2021 The Allen Institute for Artificial Intelligence.
  -
  - Licensed under the Apache License, Version 2.0 (the "License");
  - you may not use this file except in compliance with the License.
  - You may obtain a copy of the License at
  -
  -     http://www.apache.org/licenses/LICENSE-2.0
  -
  - Unless required by applicable law or agreed to in writing, software
  - distributed under the License is distributed on an "AS IS" BASIS,
  - WITHOUT WARRANTIES OR CONDITIONS OF ANY KIND, either express or implied.
  - See the License for the specific language governing permissions and
  - limitations under the License.
  -->

<!-- Created with Inkscape (http://www.inkscape.org/) -->

<svg
   width="175mm"
   height="175mm"
   viewBox="0 0 175 175"
   version="1.1"
   id="svg5"
   inkscape:version="1.1.1 (c3084ef, 2021-09-22)"
   sodipodi:docname="logo.svg"
   inkscape:export-filename="/Users/paula/IdeaProjects/AMPT/doc_source/docs/img/ampt_logo_med.png"
   inkscape:export-xdpi="18.58"
   inkscape:export-ydpi="18.58"
   xmlns:inkscape="http://www.inkscape.org/namespaces/inkscape"
   xmlns:sodipodi="http://sodipodi.sourceforge.net/DTD/sodipodi-0.dtd"
   xmlns:xlink="http://www.w3.org/1999/xlink"
   xmlns="http://www.w3.org/2000/svg"
   xmlns:svg="http://www.w3.org/2000/svg">
  <sodipodi:namedview
     id="namedview7"
     pagecolor="#ffffff"
     bordercolor="#666666"
     borderopacity="1.0"
     inkscape:pageshadow="2"
     inkscape:pageopacity="0.0"
     inkscape:pagecheckerboard="0"
     inkscape:document-units="mm"
     showgrid="false"
     showguides="true"
     inkscape:zoom="1.4445834"
     inkscape:cx="453.41792"
     inkscape:cy="282.08825"
     inkscape:window-width="1867"
     inkscape:window-height="969"
     inkscape:window-x="3734"
     inkscape:window-y="25"
     inkscape:window-maximized="0"
     inkscape:current-layer="layer3"
     width="175mm" />
  <defs
     id="defs2">
    <clipPath
       clipPathUnits="userSpaceOnUse"
       id="clipPath854">
      <path
         d="M 0,1757.147 H 1988.434 V 0 H 0 Z"
         id="path852" />
    </clipPath>
    <clipPath
       clipPathUnits="userSpaceOnUse"
       id="clipPath1038">
      <path
         d="M 0,1757.147 H 1988.434 V 0 H 0 Z"
         id="path1036" />
    </clipPath>
    <clipPath
       clipPathUnits="userSpaceOnUse"
       id="clipPath1222">
      <path
         d="M 0,1757.147 H 1988.434 V 0 H 0 Z"
         id="path1220" />
    </clipPath>
    <clipPath
       clipPathUnits="userSpaceOnUse"
       id="clipPath1570">
      <path
         d="M 0,1757.147 H 1988.434 V 0 H 0 Z"
         id="path1568" />
    </clipPath>
  </defs>
  <g
     inkscape:groupmode="layer"
     id="layer2"
     inkscape:label="Art"
     style="display:inline">
    <g
       id="g1224"
       transform="matrix(0.35277777,0,0,-0.35277777,87.500182,22.326361)">
      <path
         d="m 0,0 c -103.341,0 -187.115,-83.773 -187.115,-187.115 0,-103.341 83.774,-187.114 187.115,-187.114 103.341,0 187.114,83.773 187.114,187.114 C 187.114,-83.773 103.341,0 0,0 m 0,-10 c 47.31,0 91.787,-18.423 125.238,-51.876 33.453,-33.452 51.876,-77.93 51.876,-125.239 0,-47.309 -18.423,-91.785 -51.876,-125.238 C 91.787,-345.807 47.31,-364.229 0,-364.229 c -47.31,0 -91.786,18.422 -125.239,51.876 -33.452,33.453 -51.876,77.929 -51.876,125.238 0,47.309 18.424,91.787 51.876,125.239 C -91.786,-28.423 -47.31,-10 0,-10"
         style="fill:#000000;fill-opacity:1;fill-rule:nonzero;stroke:none"
         id="path1226" />
    </g>
    <g
       id="g1228"
       transform="matrix(0.35277777,0,0,-0.35277777,68.024378,62.637067)"
       style="fill:#000000;fill-opacity:1;stroke:#000000;stroke-opacity:1">
      <path
         d="M 0,0 H 18.326"
         style="fill:#000000;fill-opacity:1;fill-rule:nonzero;stroke:#000000;stroke-width:3;stroke-linecap:butt;stroke-linejoin:miter;stroke-miterlimit:10;stroke-dasharray:none;stroke-opacity:1"
         id="path1230" />
    </g>
    <g
       id="g1232"
       transform="matrix(0.35277777,0,0,-0.35277777,65.435728,37.490575)"
       style="fill:#000000;fill-opacity:1;stroke:#000000;stroke-opacity:1">
      <path
         d="M 0,0 H 25.664"
         style="fill:#000000;fill-opacity:1;fill-rule:nonzero;stroke:#000000;stroke-width:3;stroke-linecap:butt;stroke-linejoin:miter;stroke-miterlimit:10;stroke-dasharray:none;stroke-opacity:1"
         id="path1234" />
    </g>
    <g
       id="g1236"
       transform="matrix(0.35277777,0,0,-0.35277777,70.455928,49.787207)"
       style="fill:#000000;fill-opacity:1;stroke:#000000;stroke-opacity:1">
      <path
         d="M 0,0 H 11.434"
         style="fill:#000000;fill-opacity:1;fill-rule:nonzero;stroke:#000000;stroke-width:2;stroke-linecap:butt;stroke-linejoin:miter;stroke-miterlimit:10;stroke-dasharray:none;stroke-opacity:1"
         id="path1238" />
    </g>
    <g
       id="g1240"
       transform="matrix(0.35277777,0,0,-0.35277777,70.455928,75.486577)"
       style="fill:#000000;fill-opacity:1;stroke:#000000;stroke-opacity:1">
      <path
         d="M 0,0 H 11.434"
         style="fill:#000000;fill-opacity:1;fill-rule:nonzero;stroke:#000000;stroke-width:2;stroke-linecap:butt;stroke-linejoin:miter;stroke-miterlimit:10;stroke-dasharray:none;stroke-opacity:1"
         id="path1242" />
    </g>
    <g
       id="g1244"
       transform="matrix(0.35277777,0,0,-0.35277777,66.935028,88.336437)"
       style="fill:#000000;fill-opacity:1;stroke:#000000;stroke-opacity:1">
      <path
         d="M 0,0 H 21.414"
         style="fill:#000000;fill-opacity:1;fill-rule:nonzero;stroke:#000000;stroke-width:3;stroke-linecap:butt;stroke-linejoin:miter;stroke-miterlimit:10;stroke-dasharray:none;stroke-opacity:1"
         id="path1246" />
    </g>
    <g
       id="g1248"
       transform="matrix(0.35277777,0,0,-0.35277777,70.455928,101.1863)"
       style="fill:#000000;fill-opacity:1;stroke:#000000;stroke-opacity:1">
      <path
         d="M 0,0 H 11.434"
         style="fill:#000000;fill-opacity:1;fill-rule:nonzero;stroke:#000000;stroke-width:2;stroke-linecap:butt;stroke-linejoin:miter;stroke-miterlimit:10;stroke-dasharray:none;stroke-opacity:1"
         id="path1250" />
    </g>
    <g
       id="g1252"
       transform="matrix(0.35277777,0,0,-0.35277777,68.024378,114.03584)"
       style="fill:#000000;fill-opacity:1;stroke:#000000;stroke-opacity:1">
      <path
         d="M 0,0 H 18.326"
         style="fill:#000000;fill-opacity:1;fill-rule:nonzero;stroke:#000000;stroke-width:3;stroke-linecap:butt;stroke-linejoin:miter;stroke-miterlimit:10;stroke-dasharray:none;stroke-opacity:1"
         id="path1254" />
    </g>
    <g
       id="g1256"
       transform="matrix(0.35277777,0,0,-0.35277777,70.455928,126.8857)"
       style="fill:#000000;fill-opacity:1;stroke:#000000;stroke-opacity:1">
      <path
         d="M 0,0 H 11.434"
         style="fill:#000000;fill-opacity:1;fill-rule:nonzero;stroke:#000000;stroke-width:2;stroke-linecap:butt;stroke-linejoin:miter;stroke-miterlimit:10;stroke-dasharray:none;stroke-opacity:1"
         id="path1258" />
    </g>
    <g
       id="g1260"
       transform="matrix(0.35277777,0,0,-0.35277777,65.435728,139.73556)"
       style="fill:#000000;fill-opacity:1;stroke:#000000;stroke-opacity:1">
      <path
         d="M 0,0 H 25.664"
         style="fill:#000000;fill-opacity:1;fill-rule:nonzero;stroke:#000000;stroke-width:3;stroke-linecap:butt;stroke-linejoin:miter;stroke-miterlimit:10;stroke-dasharray:none;stroke-opacity:1"
         id="path1262" />
    </g>
    <g
       id="g1264"
       transform="matrix(0.35277777,0,0,-0.35277777,150.24848,70.106047)"
       style="fill:none;fill-opacity:1;stroke:#000000;stroke-opacity:1">
      <path
         d="m 0,0 c -0.346,-0.032 -74.058,-32.377 -106.994,-24.829 -18.913,10.815 -21.938,24.866 -26.12,44.312 -1.98,9.204 -4.224,19.632 -8.572,30.928 -7.214,18.739 -19.96,28.945 -29.379,34.207 -9.507,5.311 -17.529,6.776 -18.862,6.99 -0.209,0.042 -0.426,0.065 -0.645,0.065 -1.872,0 -3.391,-1.585 -3.391,-3.544 v -0.006 c 0,-1.597 1.009,-2.946 2.397,-3.391 0.563,-0.288 9.42,-5.436 9.42,-42.25 0,-3.922 -0.103,-8.126 -0.307,-12.488 -0.322,-6.879 -0.48,-12.969 -0.48,-18.617 -0.001,-19.135 1.891,-32.626 5.949,-42.459 3.148,-7.63 7.695,-13.476 14.425,-18.421 -16.333,-11.072 -22.003,-26.59 -22.003,-57.836 -10e-4,-7.054 0.298,-14.942 0.916,-24.117 0.39,-5.785 0.586,-11.28 0.586,-16.334 0,-33.499 -8.506,-39.814 -9.392,-40.378 -1.456,-0.424 -2.323,-1.761 -2.323,-3.273 0,-0.288 0.031,-0.58 0.094,-0.875 0.41,-1.883 2.352,-3.023 4.159,-2.634 0.36,0.077 8.937,1.971 19.136,8.311 9.43,5.866 22.102,16.816 28.919,35.684 4.114,11.393 6.146,21.869 7.937,31.114 3.783,19.529 14.104,36.498 28.983,49.976 7.283,4.379 10.767,3.354 19.532,3.307 9.936,-0.052 3.744,0.193 5.573,-0.22 L 3.371,-85.733 M -190.572,88.123 v 0.006"
         style="fill:none;fill-opacity:1;fill-rule:nonzero;stroke:#000000;stroke-opacity:1"
         id="path1266" />
    </g>
    <g
       id="g1268"
       transform="matrix(0.35277777,0,0,-0.35277777,150.24848,70.536327)"
       style="fill:#000000;fill-opacity:1;stroke:#000000;stroke-opacity:1">
      <path
         d="m 0,0 c -0.346,-0.032 -74.058,-32.377 -106.994,-24.829 -18.913,10.815 -21.938,24.866 -26.12,44.311 -1.98,9.204 -4.224,19.633 -8.572,30.929 -7.214,18.738 -19.96,28.944 -29.379,34.207 -9.507,5.311 -17.529,6.775 -18.862,6.989 -0.209,0.042 -0.426,0.066 -0.645,0.066 -1.872,0 -3.391,-1.585 -3.391,-3.544 v -0.006 c 0,-1.597 1.009,-2.946 2.397,-3.392 0.563,-0.287 9.42,-5.435 9.42,-42.25 0,-3.922 -0.103,-8.126 -0.307,-12.487 -0.322,-6.879 -0.48,-12.97 -0.48,-18.617 -0.001,-19.135 1.891,-32.626 5.949,-42.459 3.148,-7.63 7.695,-13.477 14.425,-18.421 -16.333,-11.072 -22.003,-26.59 -22.003,-57.836 -10e-4,-7.055 0.298,-14.942 0.916,-24.117 0.39,-5.785 0.586,-11.28 0.586,-16.334 0,-33.499 -8.506,-39.814 -9.392,-40.378 -1.456,-0.424 -2.323,-1.761 -2.323,-3.274 0,-0.287 0.031,-0.58 0.094,-0.875 0.41,-1.882 2.352,-3.022 4.159,-2.633 0.36,0.077 8.937,1.97 19.136,8.311 9.43,5.865 22.102,16.816 28.919,35.684 4.114,11.392 6.146,21.869 7.937,31.114 3.783,19.528 14.104,36.498 28.983,49.976 19.169132,5.896867 74.602842,-7.842406 108.918,-15.869 M -190.572,88.123 v 0.006"
         style="fill:#000000;fill-opacity:1;stroke:#000000;stroke-width:7;stroke-linecap:butt;stroke-linejoin:miter;stroke-miterlimit:10;stroke-dasharray:none;stroke-opacity:1"
         id="path1270"
         sodipodi:nodetypes="ccccccssscsccccccscsccccccccc" />
    </g>
  </g>
  <g
     inkscape:groupmode="layer"
     id="layer3"
     inkscape:label="Text"
     style="display:inline">
    <path
       id="path7370-7"
       style="display:inline;fill:none;stroke:none;stroke-width:0.354917"
       d="M 16.769184,130.54075 A 82.524054,82.34541 39.561721 0 0 129.87244,159.12808 82.524054,82.34541 39.561721 0 0 158.23082,46.131657 82.524054,82.34541 39.561721 0 0 45.12755,17.544324 82.524054,82.34541 39.561721 0 0 16.769184,130.54075 Z" />
    <text
       xml:space="preserve"
       style="font-style:normal;font-weight:normal;font-size:16.9333px;line-height:1.25;font-family:sans-serif;display:inline;fill:#000000;fill-opacity:1;stroke:none;stroke-width:0.264583"
       id="text8550"
       transform="translate(0.02474632,-0.57858824)"><textPath
         xlink:href="#path7370"
         id="textPath9329"
         style="font-style:normal;font-variant:normal;font-weight:normal;font-stretch:normal;font-size:16.9333px;font-family:sans-serif;-inkscape-font-specification:sans-serif">Aquatic Mammal</textPath></text>
    <text
       xml:space="preserve"
       style="font-style:normal;font-weight:normal;font-size:15.875px;line-height:1.25;font-family:sans-serif;fill:#000000;fill-opacity:1;stroke:none;stroke-width:0.264583"
       id="text17042"
       transform="translate(-0.313356,-0.699905)"><textPath
         xlink:href="#path7370-7"
         id="textPath17720"
         style="font-size:15.875px">Photogrammetry Tool</textPath></text>
    <path
       id="path7370"
       style="fill:none;fill-opacity:1;stroke:none;stroke-width:0.304823;stroke-opacity:1"
       d="M 28.491415,48.376079 A 70.926475,70.673618 78.391897 0 1 126.41267,28.35243 70.926475,70.673618 78.391897 0 1 146.50858,126.62393 70.926475,70.673618 78.391897 0 1 48.587319,146.64756 70.926475,70.673618 78.391897 0 1 28.491415,48.376079 Z" />
  </g>
</svg>
