<?xml version="1.0" encoding="UTF-8" standalone="no"?>
<!-- Created with Inkscape (http://www.inkscape.org/) -->

<svg
   width="108.39336mm"
   height="313.45782mm"
   viewBox="0 0 108.39336 313.45782"
   version="1.1"
   id="svg5"
   inkscape:version="1.1.1 (c3084ef, 2021-09-22)"
   sodipodi:docname="cartoon_orca.svg"
   inkscape:export-filename="/Users/paula/IdeaProjects/AMPT/doc_source/docs/assets/cartoon_orca.png"
   inkscape:export-xdpi="96.022484"
   inkscape:export-ydpi="96.022484"
   xmlns:inkscape="http://www.inkscape.org/namespaces/inkscape"
   xmlns:sodipodi="http://sodipodi.sourceforge.net/DTD/sodipodi-0.dtd"
   xmlns="http://www.w3.org/2000/svg"
   xmlns:svg="http://www.w3.org/2000/svg">
  <sodipodi:namedview
     id="namedview7"
     pagecolor="#ffffff"
     bordercolor="#666666"
     borderopacity="1.0"
     inkscape:pageshadow="2"
     inkscape:pageopacity="0"
     inkscape:pagecheckerboard="0"
     inkscape:document-units="mm"
     showgrid="false"
     showguides="false"
     inkscape:zoom="0.5"
     inkscape:cx="765"
     inkscape:cy="637"
     inkscape:window-width="1312"
     inkscape:window-height="969"
     inkscape:window-x="217"
     inkscape:window-y="25"
     inkscape:window-maximized="0"
     inkscape:current-layer="layer1"
     fit-margin-top="10"
     fit-margin-left="10"
     fit-margin-right="10"
     fit-margin-bottom="10" />
  <defs
     id="defs2" />
  <g
     inkscape:label="Layer 1"
     inkscape:groupmode="layer"
     id="layer1"
     style="display:inline"
     transform="translate(8.3396091,8.6335012)">
    <rect
       style="fill:#179baa;fill-opacity:1;stroke:#000000;stroke-width:0.184"
       id="rect11250"
       width="110.06667"
       height="314.85416"
       x="-9.3979425"
       y="-8.6335011"
       rx="2.6458333"
       ry="1.4098825" />
    <path
       style="fill:#808080;stroke:#000000;stroke-width:0.245651px;stroke-linecap:butt;stroke-linejoin:miter;stroke-opacity:1;fill-opacity:1"
       d="m 50.250675,1.4898436 c -1.37989,-0.025907 -2.850993,0.5767524 -3.84427,1.53043 -2.621892,2.5173617 -2.738762,6.7316487 -4.420914,9.9477934 -1.6591,3.172073 -3.828514,6.056872 -5.574195,9.182579 -1.851542,3.315254 -3.979479,6.542465 -5.189767,10.139099 -2.334998,6.938948 -2.39246,14.443629 -3.844275,21.61732 -1.491618,7.370371 -3.802811,14.57616 -4.997552,21.999929 -1.384411,8.602322 -2.341022,17.306756 -2.498776,26.017316 -0.136494,7.53661 0.737604,15.06031 1.345494,22.57384 0.863247,10.66974 1.636515,21.36726 3.267632,31.94772 2.023833,13.12786 5.464443,26.00068 8.072971,39.02596 1.058648,5.2862 2.204596,10.55817 3.075418,15.87821 2.182599,13.33399 4.940317,26.67117 5.381981,40.17379 0.154621,4.72708 -0.167933,9.49323 -0.961067,14.15647 -0.565553,3.32516 -0.417461,7.25579 -2.69099,9.75649 -5.620352,6.18191 -16.42753,4.4464 -23.450063,8.99128 -2.126949,1.37653 -3.916629,3.29517 -5.3819813,5.35649 -0.9434673,1.32718 -3.099951,3.10351 -2.1143503,4.4 1.1376345,1.49649 3.7057166,-0.7051 5.5741966,-0.95653 7.783586,-1.04741 15.663567,-1.26988 23.450061,-2.29564 1.545441,-0.20359 3.364492,0.16371 4.613127,-0.76522 1.996813,-1.48555 3.267631,-6.69563 3.267631,-6.69563 0,0 1.469379,4.78992 3.459844,5.93043 2.776338,1.59079 6.407122,0 9.610682,0 5.253839,0 10.648222,-1.20137 15.761516,0 1.673218,0.39312 3.131389,3.16336 4.613124,2.29563 1.271278,-0.74449 0.885077,-3.10397 0.192217,-4.39997 -1.729158,-3.23439 -6.143648,-4.06584 -9.418467,-5.73912 -3.95925,-2.023 -8.127818,-3.6278 -12.301671,-5.1652 -1.577242,-0.58096 -3.721779,-0.25032 -4.805342,-1.53043 -2.08415,-2.46221 -1.205613,-6.34871 -1.345495,-9.56519 -0.21086,-4.84853 0.292566,-9.70922 0.768855,-14.53909 0.746104,-7.56595 1.68823,-15.13583 3.267631,-22.57383 1.128259,-5.31341 3.123875,-10.41179 4.420914,-15.68691 3.267706,-13.28989 6.047461,-26.70361 8.457398,-40.17378 2.781387,-15.54637 5.553069,-31.13721 6.919691,-46.86942 1.0379,-11.94803 1.779212,-24.00017 0.961069,-35.9651 C 73.086224,77.691555 69.899483,66.173879 68.126541,54.480978 67.007012,47.097467 66.533094,39.609735 65.051126,32.289745 64.461715,29.378425 63.875298,26.429425 62.744563,23.681077 61.51589,20.694685 59.34547,18.17147 57.939221,15.263712 56.592433,12.478906 55.823023,9.4413524 54.479376,6.6550443 53.746937,5.1361924 53.23373,3.3876678 51.980599,2.2550581 51.513451,1.8328386 50.881591,1.5016866 50.250675,1.4898436 Z"
       id="path869"
       sodipodi:nodetypes="aaaaaaaaaaaaaaaaaaaaacaaaaaaaaaaaaaaaaaaaaaa" />
    <path
       style="fill:#5f5f5f;stroke:#000000;stroke-width:0.245651px;stroke-linecap:butt;stroke-linejoin:miter;stroke-opacity:1;fill-opacity:1"
       d="m 27.136988,54.767932 c -2.242492,0.828984 -4.715563,1.833462 -7.06385,2.773906 -2.505645,1.003463 -5.329631,1.455976 -7.496331,3.060858 -1.388726,1.028634 -2.355226,2.553203 -3.2676313,4.017379 -1.7830862,2.861399 -2.8758085,6.09649 -4.2286997,9.182579 -1.1372344,2.594151 -2.999237,5.025769 -3.267631,7.843455 -0.1790767,1.880007 0.4976542,3.775688 1.1532816,5.547808 0.782731,2.115664 1.5042689,4.515194 3.267631,5.930413 1.4045041,1.127213 3.3855072,1.531723 5.1897674,1.530426 3.142102,-0.0019 6.022693,-1.785495 9.03404,-2.678247"
       id="path986"
       sodipodi:nodetypes="caaaaaaaac" />
    <path
       style="fill:#5f5f5f;stroke:#000000;stroke-width:0.245651px;stroke-linecap:butt;stroke-linejoin:miter;stroke-opacity:1;fill-opacity:1"
       d="m 68.51097,56.394016 c 2.690992,0.637679 5.647564,0.589171 8.072975,1.913036 2.502892,1.366157 4.546553,3.580464 6.150837,5.930417 2.260214,3.310753 3.315954,7.306864 4.613122,11.095616 1.02769,3.001649 3.011929,6.052842 2.498778,9.182576 -0.260433,1.588418 -1.610165,2.820259 -2.690994,4.017384 -1.337866,1.481816 -2.845734,2.890876 -4.613123,3.826068 -1.826178,0.966296 -3.890761,1.683293 -5.95862,1.721741 -0.924489,0.01723 -1.793996,-0.446792 -2.690993,-0.670193"
       id="path988"
       sodipodi:nodetypes="caaaaaaac" />
    <path
       style="fill:#717171;stroke:#000000;stroke-width:0.245651px;stroke-linecap:butt;stroke-linejoin:miter;stroke-opacity:1;fill-opacity:1"
       d="m 49.097394,112.0634 c -2.156255,6.37417 -3.776366,13.59101 -4.2287,19.70429 -0.212675,2.9896 0.98769,4.98882 1.698944,7.90909 0.498344,4.96871 -0.200575,11.83082 2.529756,17.72561 1.946696,-5.80373 1.608292,-12.54514 2.39384,-17.83767 0.420876,-2.69916 1.689018,-5.26072 1.83486,-7.98834 0.05253,-7.06345 -1.687275,-12.87277 -4.2287,-19.51298 z"
       id="path1255"
       sodipodi:nodetypes="ccccccc" />
    <path
       style="fill:#e4e4e4;stroke:#000000;stroke-width:0.245651px;stroke-linecap:butt;stroke-linejoin:miter;stroke-opacity:1;fill-opacity:1"
       d="m 48.136326,215.94133 c 0,0 3.137376,-26.36644 5.574194,-39.40857 0.829691,-4.4406 1.116522,-9.12567 3.075419,-13.19996 1.300127,-2.70411 4.003465,-4.52036 5.574194,-7.07824 2.391949,-3.8952 5.081291,-7.92087 5.766408,-12.43474 0.434468,-2.86247 0.680284,-6.36133 -1.153282,-8.60867 -1.456226,-1.78484 -4.336583,-3.00113 -6.535262,-2.29564 -3.050288,0.97875 -3.957713,5.05422 -5.490226,7.85563 -0.962831,1.76005 -1.691145,3.64962 -2.293253,5.56194 -0.487886,1.54954 -0.581478,3.20335 -1.058348,4.75628 -0.6642,2.16298 -2.498776,6.31303 -2.498776,6.31303 0,0 -1.778477,-3.49107 -2.373591,-5.34759 -0.614258,-1.91624 -0.532411,-4.01852 -1.214464,-5.91192 -1.173333,-3.25719 -2.160491,-7.01809 -4.87933,-9.17466 -1.959192,-1.55402 -4.839833,-2.58138 -7.259749,-1.93604 -2.368125,0.63154 -4.531338,2.82881 -5.200763,5.17615 -0.73015,2.56026 0.8599,5.2962 1.846637,7.76978 0.967596,2.42559 2.09366,4.92063 3.933278,6.78038 2.085249,2.10807 5.610351,2.40667 7.651651,4.55693 2.086289,2.19765 3.292349,5.15854 4.2287,8.03476 1.237258,3.80053 1.420637,7.87767 1.729923,11.86084 0.488764,6.29457 0.09199,12.6265 0.192213,18.93906 0.09417,5.93104 0.384427,17.79125 0.384427,17.79125 z"
       id="path1257"
       sodipodi:nodetypes="caaaaaaaaacaaaaaaaaaaac" />
    <path
       style="fill:#ffffff;stroke:#000000;stroke-width:0.245651px;stroke-linecap:butt;stroke-linejoin:miter;stroke-opacity:1;fill-opacity:1"
       d="m 28.453322,58.132761 c 0.702035,1.16049 0.952311,-2.54332 1.291197,-3.855257 0.906049,-3.507612 1.263172,-7.133963 1.970776,-10.686503 0.761135,-3.82129 2.556792,-7.536392 2.446481,-11.430498 -0.01456,-0.513908 -0.08743,-1.084652 -0.407747,-1.487992 -0.176003,-0.221625 -0.465068,-0.378113 -0.747536,-0.405818 -0.377895,-0.03707 -0.807264,0.08296 -1.087323,0.338181 -0.450138,0.410217 -0.528141,1.101322 -0.697641,1.684871 -1.571321,5.409687 -2.56135,11.02365 -2.904121,16.644508 -0.338083,5.543978 -0.986797,7.342625 0.135914,9.198508 z"
       id="path1457"
       sodipodi:nodetypes="saaaaaaass" />
    <path
       style="fill:#ffffff;stroke:#000000;stroke-width:0.245651px;stroke-linecap:butt;stroke-linejoin:miter;stroke-opacity:1;fill-opacity:1"
       d="m 67.393129,56.644766 c -2.751327,-5.004797 -2.61154,-11.808743 -3.601763,-18.126471 -0.232873,-1.485757 -0.383698,-3.004714 -0.262585,-4.503601 0.04913,-0.608053 0.05788,-1.279417 0.398502,-1.786554 0.15367,-0.228788 0.405574,-0.510415 0.679578,-0.473452 0.230365,0.03108 0.389327,0.31024 0.444267,0.535057 0.731151,2.991976 0.941999,6.340808 1.364861,8.981821 0.576492,3.600529 0.711701,7.223696 1.260631,10.821772 0.230929,1.513667 0.459778,5.903471 -0.283491,4.551428 z"
       id="path1459"
       sodipodi:nodetypes="ssaaassss" />
    <ellipse
       style="fill:#3a3a3a;stroke:#000000;stroke-width:0.170834;fill-opacity:1"
       id="path6082"
       cx="49.248405"
       cy="37.571392"
       rx="2.9221845"
       ry="1.4879938" />
  </g>
</svg>
